<?xml version="1.0" standalone="no"?>
<!DOCTYPE svg PUBLIC "-//W3C//DTD SVG 20010904//EN"
 "http://www.w3.org/TR/2001/REC-SVG-20010904/DTD/svg10.dtd">
<svg version="1.0" xmlns="http://www.w3.org/2000/svg"
 width="1080.000000pt" height="1080.000000pt" viewBox="0 0 1080.000000 1080.000000"
 preserveAspectRatio="xMidYMid meet">
<metadata>
Created by potrace 1.14, written by Peter Selinger 2001-2017
</metadata>
<g transform="translate(0.000000,1080.000000) scale(0.100000,-0.100000)"
fill="#000000" stroke="none">
<path d="M5090 9214 c-779 -71 -1483 -352 -2080 -829 -163 -129 -414 -377
-548 -538 -460 -554 -751 -1211 -851 -1927 -20 -138 -41 -409 -41 -520 0 -264
50 -650 121 -935 171 -682 524 -1294 1036 -1795 605 -593 1330 -945 2193
-1065 158 -22 618 -31 803 -16 673 57 1333 298 1884 688 333 235 681 583 916
916 269 380 473 823 587 1277 42 166 86 431 101 607 15 185 6 645 -16 803
-123 889 -497 1638 -1122 2250 -605 593 -1326 944 -2193 1066 -111 15 -675 28
-790 18z m-565 -1939 c144 -10 306 -68 421 -150 132 -95 238 -264 291 -465
l27 -105 4 -1115 c2 -731 0 -1146 -7 -1205 -56 -478 -341 -749 -816 -772 -455
-22 -774 173 -893 548 -57 178 -57 177 -57 1364 0 1173 0 1184 52 1350 85 270
260 442 530 520 86 25 257 45 338 39 22 -2 72 -6 110 -9z m2175 -10 c325 -58
537 -265 616 -601 23 -99 26 -134 31 -396 l6 -288 -277 0 -276 0 0 209 c0 324
-21 422 -105 500 -50 46 -100 62 -190 62 -129 0 -205 -43 -257 -146 -37 -72
-39 -150 -36 -1280 4 -1236 -1 -1157 79 -1248 76 -88 229 -110 354 -53 84 38
126 108 144 242 6 41 11 201 11 355 l0 279 276 0 276 0 -5 -352 c-6 -427 -15
-487 -102 -664 -80 -162 -174 -258 -332 -338 -145 -73 -408 -104 -603 -71
-350 58 -554 241 -648 584 l-27 96 0 1215 0 1215 24 89 c50 189 111 298 230
408 84 78 174 127 296 163 143 42 350 50 515 20z"/>
<path d="M4318 6749 c-101 -14 -180 -84 -214 -187 -18 -54 -19 -113 -19 -1192
l0 -1135 22 -57 c30 -80 66 -123 131 -155 47 -23 70 -27 137 -28 100 0 155 16
205 61 58 53 88 124 100 241 7 64 10 456 8 1143 -3 963 -5 1050 -21 1105 -10
33 -29 76 -42 96 -32 49 -107 97 -164 104 -25 3 -55 7 -66 9 -11 2 -46 -1 -77
-5z"/>
</g>
</svg>
